<svg width="160" height="40" viewBox="0 0 160 40" fill="none" xmlns="http://www.w3.org/2000/svg">
<g opacity="0.45" clip-path="url(#clip0_47_7)">
<path d="M55.9998 38.5521H54.2399C53.8959 38.5041 53.5518 38.4721 53.2158 38.4161C50.4328 38.0333 47.8365 36.798 45.7838 34.8801C43.3872 32.7094 41.7967 29.7907 41.2719 26.6001C41.1759 26.0641 41.1199 25.5201 41.0479 25.0001V23.2001L41.1678 22.1921C41.6102 18.4801 43.4883 15.0887 46.3999 12.7441C47.8993 11.4747 49.6608 10.5526 51.5584 10.0436C53.4559 9.53469 55.4424 9.45151 57.3759 9.80007C59.1694 10.0824 60.8874 10.7239 62.427 11.6862C63.9666 12.6485 65.2961 13.9117 66.3358 15.4001C67.4693 16.9108 68.2931 18.6306 68.7599 20.4607C69.2267 22.2907 69.3273 24.195 69.0558 26.0641C68.6953 28.8876 67.4907 31.5365 65.5998 33.6641C63.5312 36.1075 60.6778 37.7562 57.5279 38.3281C57.0239 38.4001 56.4958 38.4801 55.9998 38.5521ZM55.9998 12.0641C55.9093 12.0564 55.8184 12.0564 55.7279 12.0641C54.8695 12.0757 54.0124 12.1318 53.1598 12.2321C50.5543 12.7085 48.1821 14.0403 46.4187 16.0168C44.6553 17.9932 43.6014 20.5013 43.4238 23.1441C43.4286 23.2442 43.4716 23.3386 43.5439 23.4081C44.0675 23.7952 44.4969 24.2956 44.7999 24.8721C44.9839 25.1841 45.1599 25.5041 45.3439 25.8241C45.4119 25.9508 45.509 26.0596 45.6272 26.1417C45.7454 26.2237 45.8813 26.2766 46.0238 26.2961C46.3358 26.3361 46.6558 26.3841 46.9678 26.4481C47.1488 26.4692 47.3229 26.53 47.4777 26.6261C47.6325 26.7221 47.7642 26.8511 47.8635 27.0039C47.9628 27.1567 48.0272 27.3294 48.0522 27.5099C48.0771 27.6904 48.062 27.8741 48.0078 28.0481C47.88 28.5861 47.6341 29.0889 47.2879 29.5201C46.9977 29.928 46.8488 30.4197 46.8639 30.9201C46.8639 31.4241 46.8639 31.9361 46.8639 32.4481C46.8735 32.5988 46.9326 32.7422 47.0319 32.8561C49.1758 34.9633 52.0617 36.1441 55.0678 36.1441C58.074 36.1441 60.9599 34.9633 63.1038 32.8561C64.4548 31.5678 65.4838 29.9798 66.1077 28.2205C66.7317 26.4611 66.9332 24.5797 66.6959 22.7281C66.6399 22.1361 66.4959 21.5441 66.3839 20.9521C65.9759 21.2161 65.5838 21.4721 65.2478 21.6721C65.0429 21.7771 64.8087 21.8105 64.5825 21.767C64.3564 21.7235 64.1513 21.6056 63.9998 21.4321C63.8036 21.2583 63.5979 21.0954 63.3839 20.9441L63.3279 21.0001C63.3759 21.1041 63.4158 21.2161 63.4718 21.3201C63.9526 22.1525 64.5754 22.8943 65.3118 23.5121C65.7278 23.8721 65.7438 24.1521 65.4158 24.5921C65.0878 25.0321 64.6159 25.6641 64.2399 26.1921C64.0671 26.4281 63.9546 26.7027 63.9118 26.9921C63.8972 27.2806 63.8177 27.562 63.6792 27.8155C63.5407 28.069 63.3467 28.2879 63.1118 28.4561C62.9799 28.5612 62.8737 28.6952 62.8016 28.8478C62.7295 29.0003 62.6933 29.1674 62.6959 29.3361C62.6996 29.7127 62.6147 30.0849 62.4479 30.4227C62.2811 30.7604 62.0372 31.0541 61.7358 31.2801C61.0276 31.8384 60.2099 32.2418 59.3358 32.4641C59.2254 32.5049 59.1048 32.5099 58.9914 32.4783C58.8779 32.4467 58.7773 32.3801 58.7038 32.2881C58.1492 31.6765 57.7367 30.9498 57.4959 30.1601C57.3798 29.8397 57.3439 29.4957 57.3913 29.1583C57.4387 28.8208 57.568 28.5001 57.7678 28.2241C57.8648 28.0971 57.9299 27.9488 57.9577 27.7915C57.9856 27.6342 57.9753 27.4726 57.9279 27.3201C57.8799 27.1121 57.7759 26.9201 57.7199 26.7121C57.6079 26.2801 57.5118 25.8401 57.3918 25.4081C57.3664 25.3062 57.3072 25.2159 57.2238 25.1521C57.1151 25.087 56.9961 25.041 56.8718 25.0161C55.9398 24.7717 54.9793 24.6533 54.0158 24.6641C53.4245 24.6844 52.8394 24.5374 52.3279 24.2401C52.1068 24.1143 51.919 23.9377 51.7798 23.7248C51.6407 23.5119 51.5543 23.269 51.5279 23.0161C51.4786 22.4628 51.4572 21.9075 51.4639 21.3521C51.4641 20.9755 51.5416 20.603 51.6916 20.2576C51.8416 19.9122 52.0609 19.6013 52.3358 19.3441C52.9384 18.7677 53.6936 18.3763 54.5118 18.2161C55.6754 17.8657 56.9267 17.951 58.0319 18.4561C58.1577 18.5307 58.3015 18.5695 58.4478 18.5681C59.1918 18.5681 59.9278 18.6321 60.6718 18.6241C61.0196 18.6281 61.3664 18.5878 61.7038 18.5041C61.788 18.4861 61.8653 18.4447 61.9269 18.3846C61.9885 18.3245 62.0318 18.2482 62.0519 18.1646C62.072 18.0809 62.068 17.9933 62.0404 17.9118C62.0128 17.8303 61.9627 17.7583 61.8959 17.7041C61.7348 17.5503 61.5443 17.4306 61.3358 17.3521C60.1398 16.9243 58.8652 16.7606 57.5998 16.8721C56.9044 17.0049 56.2346 17.248 55.6158 17.5921C55.144 17.7842 54.6533 17.9263 54.1519 18.0161C53.6399 18.1041 53.3519 17.9201 53.2079 17.4161C53.1266 17.1961 53.0886 16.9625 53.0959 16.7281C53.1298 16.1994 53.3412 15.6976 53.6959 15.3041C54.1587 14.7234 54.736 14.2442 55.3918 13.8961C55.6478 13.7521 55.8878 13.5681 56.1438 13.4001C55.5679 12.5921 55.5678 12.5761 55.9358 12.0641H55.9998Z" fill="black"/>
<path d="M16.6638 35.344C16.4785 35.1187 16.245 34.9377 15.9806 34.8145C15.7162 34.6913 15.4275 34.6289 15.1358 34.632H13.4398C12.9139 34.6308 12.3956 34.5056 11.9272 34.2665C11.4588 34.0274 11.0533 33.6812 10.7438 33.256C9.98807 32.2843 9.59737 31.0782 9.6398 29.848V17.288H13.8878C14.5106 17.3132 15.1189 17.0952 15.5838 16.68C15.7941 16.4859 15.9606 16.2492 16.0723 15.9858C16.1841 15.7223 16.2384 15.4381 16.2318 15.152C16.2421 14.8547 16.1897 14.5587 16.078 14.283C15.9664 14.0074 15.798 13.7583 15.5838 13.552C15.1189 13.1367 14.5106 12.9187 13.8878 12.944H9.6398V5.59997C9.65201 5.2636 9.59672 4.92819 9.47718 4.61354C9.35764 4.29889 9.17628 4.01138 8.9438 3.76797C8.70965 3.53082 8.42867 3.34504 8.11876 3.22245C7.80886 3.09987 7.47682 3.04317 7.1438 3.05597C6.81078 3.04317 6.47874 3.09987 6.16883 3.22245C5.85893 3.34504 5.57795 3.53082 5.3438 3.76797C5.11132 4.01138 4.92995 4.29889 4.81041 4.61354C4.69087 4.92819 4.63558 5.2636 4.6478 5.59997V12.928H2.3518C1.72623 12.9006 1.11473 13.1188 0.647797 13.536C0.4336 13.7423 0.265211 13.9914 0.153571 14.267C0.0419306 14.5427 -0.0104622 14.8387 -0.000203024 15.136C-0.00682916 15.4221 0.0475293 15.7063 0.159258 15.9697C0.270986 16.2332 0.437524 16.4699 0.647797 16.664C1.11473 17.0812 1.72623 17.2994 2.3518 17.272H4.6478V29.832C4.61876 31.582 5.01113 33.3134 5.7918 34.88C6.51086 36.3126 7.59889 37.5277 8.9438 38.4C10.2818 39.2659 11.8461 39.7169 13.4398 39.696H14.3358C15.1088 39.73 15.8669 39.4763 16.4638 38.984C16.7257 38.7579 16.9336 38.476 17.072 38.1589C17.2105 37.8418 17.276 37.4977 17.2638 37.152C17.2942 36.4958 17.0805 35.8517 16.6638 35.344Z" fill="black"/>
<path d="M37.6001 13.6C36.2861 12.8772 34.7923 12.5467 33.2961 12.648C31.7604 12.6298 30.2396 12.9501 28.8417 13.5861C27.4438 14.2221 26.2032 15.1583 25.2081 16.328V15.36C25.2592 14.6915 25.0434 14.0299 24.6081 13.52C24.3627 13.3028 24.0763 13.1371 23.7657 13.0327C23.4552 12.9282 23.1268 12.8872 22.8001 12.912C22.4754 12.8909 22.1498 12.9361 21.8431 13.0447C21.5365 13.1534 21.2551 13.3232 21.0161 13.544C20.7969 13.7903 20.6289 14.0776 20.5218 14.3894C20.4147 14.7011 20.3706 15.0311 20.3921 15.36V37.264C20.3664 37.597 20.4085 37.9316 20.5157 38.2479C20.623 38.5641 20.7932 38.8554 21.0161 39.104C21.2585 39.3182 21.541 39.4822 21.8472 39.5866C22.1534 39.6909 22.4773 39.7336 22.8001 39.712C23.1287 39.7364 23.4588 39.6929 23.7699 39.5842C24.0809 39.4755 24.3662 39.3038 24.6081 39.08C25.0359 38.5753 25.251 37.9242 25.2081 37.264V22.952C25.1777 22.2653 25.2852 21.5795 25.5242 20.9351C25.7633 20.2907 26.1291 19.7007 26.6001 19.2C27.6636 18.1579 29.0151 17.4584 30.4801 17.192C32.3116 16.834 34.1981 16.8667 36.0161 17.288C36.3928 17.3826 36.7848 17.3989 37.1681 17.336C37.5464 17.274 37.8952 17.0933 38.1641 16.8201C38.433 16.5469 38.6081 16.1952 38.6641 15.816C38.7531 15.3811 38.6973 14.929 38.5052 14.5289C38.313 14.1287 37.9951 13.8025 37.6001 13.6Z" fill="black"/>
<path d="M68.8001 15.912C67.4373 13.5224 65.4664 11.536 63.0877 10.1542C60.709 8.77248 58.0071 8.04468 55.2561 8.04468C52.5052 8.04468 49.8033 8.77248 47.4246 10.1542C45.0458 11.536 43.075 13.5224 41.7121 15.912C40.3219 18.4125 39.6155 21.2354 39.6641 24.096C39.6019 26.924 40.2686 29.7203 41.6001 32.216C42.8706 34.5624 44.7427 36.5284 47.0241 37.912C49.372 39.3233 52.0691 40.0468 54.8081 40C57.0973 40.0458 59.3623 39.5249 61.4015 38.4837C63.4407 37.4424 65.1909 35.9132 66.4961 34.032V37.536C66.4787 37.8312 66.5246 38.1267 66.6309 38.4027C66.7371 38.6787 66.9012 38.9287 67.1121 39.136C67.5447 39.5223 68.1043 39.7358 68.6841 39.7358C69.264 39.7358 69.8236 39.5223 70.2561 39.136C70.4681 38.9291 70.6334 38.6793 70.741 38.4034C70.8486 38.1275 70.896 37.8318 70.8801 37.536V24.096C70.8981 21.235 70.1819 18.4172 68.8001 15.912ZM61.0721 34.448C59.3051 35.4598 57.3043 35.9921 55.2681 35.9921C53.232 35.9921 51.2311 35.4598 49.4641 34.448C47.7421 33.4195 46.3254 31.9503 45.3601 30.192C44.339 28.3244 43.8181 26.2244 43.8481 24.096C43.8103 21.9591 44.3315 19.8494 45.3601 17.976C46.3365 16.2237 47.7505 14.7546 49.4641 13.712C51.2261 12.6853 53.2289 12.1443 55.2681 12.1443C57.3074 12.1443 59.3102 12.6853 61.0721 13.712C62.7694 14.757 64.1647 16.2267 65.1201 17.976C66.1336 19.8543 66.646 21.9621 66.6081 24.096C66.6384 26.2215 66.1262 28.3195 65.1201 30.192C64.1757 31.9471 62.7778 33.4169 61.0721 34.448Z" fill="black"/>
<path d="M96.6318 14.4799C96.5386 14.2053 96.3876 13.9538 96.1888 13.7427C95.9901 13.5315 95.7483 13.3655 95.4798 13.2559C95.2035 13.1121 94.9014 13.0246 94.591 12.9985C94.2806 12.9724 93.9682 13.0083 93.6718 13.1039C93.0976 13.29 92.6203 13.6955 92.3438 14.2319L84.0638 32.6319L75.6878 14.2319C75.4233 13.7013 74.9606 13.296 74.3998 13.1039C74.1278 13.0078 73.8383 12.9716 73.5511 12.9978C73.2639 13.024 72.9857 13.1121 72.7357 13.2559C72.4594 13.3728 72.209 13.5433 71.9989 13.7575C71.7888 13.9717 71.6233 14.2254 71.5118 14.5039C71.4085 14.7671 71.3616 15.0491 71.374 15.3315C71.3864 15.614 71.4579 15.8907 71.5838 16.1439L81.7918 38.0479C81.974 38.5129 82.2903 38.9132 82.7006 39.1981C83.1108 39.483 83.5964 39.6395 84.0958 39.6479C84.5861 39.6465 85.0636 39.4913 85.4611 39.2043C85.8586 38.9173 86.1561 38.5129 86.3118 38.0479L96.5198 16.1439C96.6482 15.8879 96.7243 15.6089 96.7435 15.3232C96.7627 15.0375 96.7248 14.7508 96.6318 14.4799Z" fill="black"/>
<path d="M120.752 27.4401C120.957 27.2402 121.119 26.9997 121.227 26.7338C121.334 26.468 121.385 26.1827 121.376 25.8961C121.435 23.5418 120.965 21.2043 120 19.0561C119.096 17.1323 117.65 15.5142 115.84 14.4001C113.897 13.2309 111.659 12.6424 109.392 12.7041C107.027 12.6607 104.695 13.2637 102.648 14.4481C100.705 15.5976 99.1138 17.2578 98.0479 19.2481C96.9096 21.4314 96.3401 23.8664 96.3919 26.3281C96.3426 28.7869 96.9502 31.2144 98.1519 33.3601C99.2983 35.3763 100.979 37.0372 103.008 38.1601C105.185 39.3477 107.633 39.9487 110.112 39.9041C111.695 39.8935 113.265 39.6233 114.76 39.1041C116.229 38.6243 117.604 37.8935 118.824 36.9441C119.077 36.7813 119.284 36.5558 119.424 36.2894C119.564 36.0231 119.633 35.725 119.624 35.4241C119.594 35.1132 119.502 34.8114 119.354 34.5366C119.206 34.2618 119.004 34.0195 118.76 33.8241C118.357 33.4696 117.832 33.286 117.296 33.3121C116.716 33.3207 116.155 33.5172 115.696 33.8721C114.923 34.4308 114.071 34.8704 113.168 35.1761C112.19 35.5392 111.155 35.7287 110.112 35.7361C108.411 35.7687 106.731 35.3461 105.248 34.5121C104.082 33.8461 103.082 32.924 102.324 31.8154C101.566 30.7068 101.069 29.4405 100.872 28.1121H119.2C119.49 28.1089 119.777 28.0478 120.044 27.9324C120.31 27.8171 120.551 27.6497 120.752 27.4401ZM100.92 24.1281C101.07 23.2247 101.339 22.3451 101.72 21.5121C102.357 20.1266 103.386 18.9584 104.68 18.1521C106.096 17.3039 107.726 16.8791 109.376 16.9281C110.821 16.8852 112.245 17.2782 113.464 18.0561C114.599 18.8152 115.5 19.8765 116.064 21.1201C116.504 22.0721 116.793 23.087 116.92 24.1281H100.92Z" fill="black"/>
<path d="M134.28 35.344C134.082 35.1148 133.836 34.9322 133.559 34.8091C133.283 34.686 132.983 34.6255 132.68 34.632H131.424C131.035 34.6223 130.657 34.502 130.334 34.2852C130.011 34.0684 129.756 33.7642 129.6 33.408C129.096 32.4534 128.853 31.3826 128.896 30.304V2.54398C128.909 2.20756 128.853 1.87202 128.734 1.5573C128.614 1.24259 128.433 0.955121 128.2 0.711977C127.712 0.254713 127.068 0.000244141 126.4 0.000244141C125.731 0.000244141 125.088 0.254713 124.6 0.711977C124.367 0.955121 124.185 1.24259 124.066 1.5573C123.946 1.87202 123.891 2.20756 123.904 2.54398V30.304C123.866 31.9854 124.191 33.6553 124.856 35.2C125.429 36.526 126.342 37.6769 127.504 38.536C128.64 39.3458 130.005 39.7718 131.4 39.752H131.504C132.376 39.7928 133.237 39.5423 133.952 39.04C134.249 38.8363 134.491 38.5626 134.657 38.2431C134.823 37.9236 134.908 37.568 134.904 37.208C134.942 36.5297 134.719 35.8626 134.28 35.344Z" fill="black"/>
<path d="M159.256 19.088C159.029 18.8515 158.755 18.6642 158.452 18.5376C158.15 18.411 157.824 18.3479 157.496 18.352H151.048V11.784C151.06 11.4551 151.006 11.1271 150.889 10.8194C150.772 10.5117 150.595 10.2304 150.368 9.99201C150.139 9.75469 149.862 9.56855 149.556 9.44583C149.25 9.32311 148.922 9.2666 148.592 9.28001C147.938 9.29861 147.317 9.56987 146.859 10.0368C146.401 10.5037 146.142 11.13 146.136 11.784V18.352H139.688C139.362 18.3437 139.038 18.4019 138.736 18.5229C138.433 18.6439 138.158 18.8253 137.928 19.056C137.698 19.2931 137.518 19.5738 137.399 19.8816C137.279 20.1894 137.222 20.518 137.232 20.848C137.215 21.5215 137.465 22.1743 137.928 22.664C138.153 22.904 138.426 23.0937 138.729 23.2206C139.033 23.3474 139.359 23.4086 139.688 23.4H146.136V29.96C146.126 30.2902 146.182 30.619 146.301 30.9269C146.421 31.2348 146.601 31.5155 146.832 31.752C147.062 31.9841 147.336 32.167 147.639 32.2894C147.941 32.4119 148.266 32.4713 148.592 32.464C148.922 32.4774 149.25 32.4209 149.556 32.2982C149.862 32.1755 150.139 31.9893 150.368 31.752C150.595 31.5136 150.772 31.2323 150.889 30.9246C151.006 30.6169 151.06 30.2889 151.048 29.96V23.4H157.496C157.824 23.4014 158.148 23.3369 158.451 23.2105C158.753 23.0841 159.027 22.8982 159.256 22.664C159.495 22.4363 159.684 22.1618 159.812 21.8576C159.94 21.5534 160.004 21.226 160 20.896C160.01 20.5593 159.949 20.2243 159.82 19.9128C159.692 19.6013 159.5 19.3203 159.256 19.088Z" fill="black"/>
</g>
<defs>
<clipPath id="clip0_47_7">
<rect width="160" height="40" fill="white"/>
</clipPath>
</defs>
</svg>
